<svg width="36" height="31" viewBox="0 0 36 31" fill="none" xmlns="http://www.w3.org/2000/svg">
<mask id="mask0_2_6" style="mask-type:luminance" maskUnits="userSpaceOnUse" x="0" y="0" width="36" height="31">
<path d="M35.6667 0H0V31H35.6667V0Z" fill="white"/>
</mask>
<g mask="url(#mask0_2_6)">
<path d="M26.7507 31V28.7857C26.7507 28.4949 26.6931 28.207 26.581 27.9383C26.469 27.6697 26.3049 27.4256 26.0979 27.2199C25.8908 27.0143 25.645 26.8512 25.3747 26.7399C25.1042 26.6287 24.8143 26.5714 24.5215 26.5714H15.6042C12.6482 26.5714 9.81318 25.4049 7.72289 23.3286C5.63262 21.2523 4.45831 18.4364 4.45826 15.5C4.45826 14.0461 4.74656 12.6064 5.3067 11.2631C5.86685 9.91987 6.68786 8.69938 7.72286 7.67129C8.75786 6.64321 9.98658 5.82772 11.3389 5.27133C12.6912 4.71495 14.1405 4.4286 15.6042 4.42862H24.5209C24.8136 4.4287 25.1037 4.37149 25.3742 4.26026C25.6447 4.14902 25.8906 3.98592 26.0976 3.7803C26.3047 3.57466 26.4689 3.33053 26.581 3.06184C26.6931 2.79315 26.7507 2.50516 26.7507 2.21431V0H15.6047C13.5556 -1.16826e-10 11.5265 0.400921 9.63329 1.17987C7.74011 1.95882 6.01993 3.10055 4.57097 4.53985C3.12199 5.97917 1.9726 7.68787 1.18844 9.56843C0.404275 11.449 0.000679949 13.4645 0.000701905 15.5C0.000701904 19.6108 1.64469 23.5533 4.571 26.4601C7.49733 29.3669 11.4663 31 15.6047 31H26.7507Z" fill="url(#paint0_linear_2_6)"/>
<path d="M8.91663 15.5C8.91663 17.2618 9.62118 18.9513 10.8753 20.197C12.1294 21.4428 13.8303 22.1426 15.6039 22.1426H26.7507C27.9332 22.1426 29.067 22.6092 29.9031 23.4397C30.7392 24.2702 31.2089 25.3966 31.2089 26.5712V30.9998H35.6673V26.5714C35.6673 24.2224 34.7279 21.9696 33.0558 20.3084C31.3835 18.6474 29.1155 17.7143 26.7507 17.7143H15.6042C15.013 17.7143 14.446 17.481 14.0279 17.0658C13.6099 16.6505 13.375 16.0873 13.375 15.5C13.375 14.9127 13.6099 14.3495 14.0279 13.9342C14.446 13.519 15.013 13.2857 15.6042 13.2857H26.7507C29.1155 13.2857 31.3835 12.3525 33.0558 10.6915C34.7279 9.03049 35.6673 6.77766 35.6673 4.42862V0H31.2083V4.42862C31.2083 5.603 30.7387 6.7293 29.9028 7.55977C29.0668 8.39025 27.933 8.85689 26.7507 8.85707H15.6042C14.726 8.85702 13.8563 9.02882 13.0449 9.36264C12.2335 9.69646 11.4963 10.1858 10.8753 10.8026C10.2543 11.4195 9.76168 12.1518 9.42561 12.9578C9.08954 13.7638 8.91659 14.6276 8.91663 15.5Z" fill="#F5B848"/>
</g>
<defs>
<linearGradient id="paint0_linear_2_6" x1="4.03995" y1="15.5" x2="38.3603" y2="15.5" gradientUnits="userSpaceOnUse">
<stop stop-color="#F54A48"/>
<stop offset="1" stop-color="#FA982F"/>
</linearGradient>
</defs>
</svg>
