<svg width="124" height="31" viewBox="0 0 124 31" fill="none" xmlns="http://www.w3.org/2000/svg">
<mask id="mask0_2_4" style="mask-type:luminance" maskUnits="userSpaceOnUse" x="0" y="0" width="36" height="31">
<path d="M35.6667 0H0V31H35.6667V0Z" fill="white"/>
</mask>
<g mask="url(#mask0_2_4)">
<path d="M26.7507 31V28.7857C26.7507 28.4949 26.6931 28.207 26.581 27.9383C26.469 27.6697 26.3049 27.4256 26.0979 27.2199C25.8908 27.0143 25.645 26.8512 25.3747 26.7399C25.1042 26.6287 24.8143 26.5714 24.5215 26.5714H15.6042C12.6482 26.5714 9.81318 25.4049 7.72289 23.3286C5.63262 21.2523 4.45831 18.4364 4.45826 15.5C4.45826 14.0461 4.74656 12.6064 5.3067 11.2631C5.86685 9.91987 6.68786 8.69938 7.72286 7.67129C8.75786 6.64321 9.98658 5.82772 11.3389 5.27133C12.6912 4.71495 14.1405 4.4286 15.6042 4.42862H24.5209C24.8136 4.4287 25.1037 4.37149 25.3742 4.26026C25.6447 4.14902 25.8906 3.98592 26.0976 3.7803C26.3047 3.57466 26.4689 3.33053 26.581 3.06184C26.6931 2.79315 26.7507 2.50516 26.7507 2.21431V0H15.6047C13.5556 -1.16826e-10 11.5265 0.400921 9.63329 1.17987C7.74011 1.95882 6.01993 3.10055 4.57097 4.53985C3.12199 5.97917 1.9726 7.68787 1.18844 9.56843C0.404275 11.449 0.000679949 13.4645 0.000701905 15.5C0.000701904 19.6108 1.64469 23.5533 4.571 26.4601C7.49733 29.3669 11.4663 31 15.6047 31H26.7507Z" fill="url(#paint0_linear_2_4)"/>
<path d="M8.91663 15.5C8.91663 17.2618 9.62118 18.9513 10.8753 20.197C12.1294 21.4428 13.8303 22.1426 15.6039 22.1426H26.7507C27.9332 22.1426 29.067 22.6092 29.9031 23.4397C30.7392 24.2702 31.2089 25.3966 31.2089 26.5712V30.9998H35.6673V26.5714C35.6673 24.2224 34.7279 21.9696 33.0558 20.3084C31.3835 18.6474 29.1155 17.7143 26.7507 17.7143H15.6042C15.013 17.7143 14.446 17.481 14.0279 17.0658C13.6099 16.6505 13.375 16.0873 13.375 15.5C13.375 14.9127 13.6099 14.3495 14.0279 13.9342C14.446 13.519 15.013 13.2857 15.6042 13.2857H26.7507C29.1155 13.2857 31.3835 12.3525 33.0558 10.6915C34.7279 9.03049 35.6673 6.77766 35.6673 4.42862V0H31.2083V4.42862C31.2083 5.603 30.7387 6.7293 29.9028 7.55977C29.0668 8.39025 27.933 8.85689 26.7507 8.85707H15.6042C14.726 8.85702 13.8563 9.02882 13.0449 9.36264C12.2335 9.69646 11.4963 10.1858 10.8753 10.8026C10.2543 11.4195 9.76168 12.1518 9.42561 12.9578C9.08954 13.7638 8.91659 14.6276 8.91663 15.5Z" fill="#F5B848"/>
</g>
<path d="M44.9877 24V6.54545H52.1979C53.5047 6.54545 54.6326 6.80114 55.5814 7.3125C56.536 7.81818 57.2718 8.52557 57.7888 9.43466C58.3059 10.3381 58.5644 11.3892 58.5644 12.5881C58.5644 13.7926 58.3002 14.8466 57.7718 15.75C57.249 16.6477 56.5019 17.3437 55.5303 17.8381C54.5587 18.3324 53.4053 18.5795 52.0701 18.5795H47.6212V15.2557H51.286C51.9223 15.2557 52.4536 15.1449 52.8797 14.9233C53.3115 14.7017 53.6382 14.392 53.8598 13.9943C54.0814 13.5909 54.1922 13.1222 54.1922 12.5881C54.1922 12.0483 54.0814 11.5824 53.8598 11.1903C53.6382 10.7926 53.3115 10.4858 52.8797 10.2699C52.4479 10.054 51.9167 9.94602 51.286 9.94602H49.2064V24H44.9877ZM63.8655 24.2216C63.0303 24.2216 62.2888 24.0824 61.6411 23.804C60.999 23.5199 60.4905 23.0937 60.1155 22.5256C59.7462 21.9517 59.5615 21.233 59.5615 20.3693C59.5615 19.642 59.6894 19.0284 59.9451 18.5284C60.2007 18.0284 60.553 17.6222 61.0019 17.3097C61.4507 16.9972 61.9678 16.7614 62.553 16.6023C63.1382 16.4375 63.7632 16.3267 64.428 16.2699C65.1723 16.2017 65.7718 16.1307 66.2263 16.0568C66.6809 15.9773 67.0104 15.8665 67.215 15.7244C67.4252 15.5767 67.5303 15.3693 67.5303 15.1023V15.0597C67.5303 14.6222 67.3797 14.2841 67.0786 14.0455C66.7775 13.8068 66.3712 13.6875 65.8598 13.6875C65.3087 13.6875 64.8655 13.8068 64.5303 14.0455C64.1951 14.2841 63.982 14.6136 63.8911 15.0341L60.0473 14.8977C60.161 14.1023 60.4536 13.392 60.9252 12.767C61.4025 12.1364 62.0559 11.642 62.8854 11.2841C63.7206 10.9205 64.7235 10.7386 65.8939 10.7386C66.7292 10.7386 67.499 10.8381 68.2036 11.0369C68.9081 11.2301 69.5218 11.5142 70.0445 11.8892C70.5672 12.2585 70.9706 12.7131 71.2547 13.2528C71.5445 13.7926 71.6894 14.4091 71.6894 15.1023V24H67.7689V22.1761H67.6667C67.4337 22.6193 67.1354 22.9943 66.7718 23.3011C66.4138 23.608 65.9905 23.8381 65.5019 23.9915C65.0189 24.1449 64.4735 24.2216 63.8655 24.2216ZM65.1525 21.4943C65.6013 21.4943 66.0047 21.4034 66.3627 21.2216C66.7263 21.0398 67.0161 20.7898 67.232 20.4716C67.4479 20.1477 67.5559 19.7727 67.5559 19.3466V18.1023C67.4365 18.1648 67.2917 18.2216 67.1212 18.2727C66.9564 18.3239 66.7746 18.3722 66.5757 18.4176C66.3769 18.4631 66.1723 18.5028 65.9621 18.5369C65.7519 18.571 65.5502 18.6023 65.357 18.6307C64.965 18.6932 64.6297 18.7898 64.3513 18.9205C64.0786 19.0511 63.8684 19.2216 63.7206 19.4318C63.5786 19.6364 63.5076 19.8807 63.5076 20.1648C63.5076 20.5966 63.661 20.9261 63.9678 21.1534C64.2803 21.3807 64.6752 21.4943 65.1525 21.4943ZM80.34 29.1818C79.0956 29.1818 78.0303 29.0085 77.1439 28.6619C76.2576 28.3153 75.5615 27.8409 75.0559 27.2386C74.5502 26.6364 74.2462 25.9545 74.1439 25.1932L78.09 24.9716C78.1638 25.2386 78.3002 25.4716 78.499 25.6705C78.7036 25.8693 78.9678 26.0227 79.2917 26.1307C79.6212 26.2386 80.0076 26.2926 80.4507 26.2926C81.1496 26.2926 81.7263 26.1222 82.1809 25.7812C82.6411 25.446 82.8712 24.858 82.8712 24.017V21.7159H82.7263C82.5615 22.1193 82.3115 22.4801 81.9763 22.7983C81.6411 23.1165 81.2235 23.3665 80.7235 23.5483C80.2292 23.7301 79.661 23.821 79.0189 23.821C78.0644 23.821 77.1894 23.5994 76.3939 23.1562C75.6042 22.7074 74.9706 22.0142 74.4934 21.0767C74.0218 20.1335 73.786 18.9205 73.786 17.4375C73.786 15.9091 74.0303 14.6506 74.5189 13.6619C75.0076 12.6676 75.6468 11.9318 76.4365 11.4545C77.232 10.9773 78.0871 10.7386 79.0019 10.7386C79.6894 10.7386 80.2775 10.858 80.7661 11.0966C81.2604 11.3295 81.6667 11.6307 81.9848 12C82.303 12.3693 82.5445 12.7528 82.7093 13.1506H82.8286V10.9091H86.9792V24.0511C86.9792 25.1591 86.7007 26.0938 86.1439 26.8551C85.5871 27.6165 84.8087 28.1932 83.8087 28.5852C82.8087 28.983 81.6525 29.1818 80.34 29.1818ZM80.4678 20.7869C80.9735 20.7869 81.4053 20.6534 81.7632 20.3864C82.1212 20.1193 82.3968 19.7358 82.59 19.2358C82.7831 18.7358 82.8797 18.1364 82.8797 17.4375C82.8797 16.7273 82.7831 16.1165 82.59 15.6051C82.4025 15.0881 82.1269 14.6903 81.7632 14.4119C81.4053 14.1335 80.9735 13.9943 80.4678 13.9943C79.9507 13.9943 79.5132 14.1364 79.1553 14.4205C78.7973 14.7045 78.5246 15.1051 78.3371 15.6222C78.1553 16.1335 78.0644 16.7386 78.0644 17.4375C78.0644 18.1364 78.1581 18.7358 78.3456 19.2358C78.5331 19.7358 78.803 20.1193 79.1553 20.3864C79.5132 20.6534 79.9507 20.7869 80.4678 20.7869ZM93.3265 24.2216C92.4912 24.2216 91.7498 24.0824 91.102 23.804C90.46 23.5199 89.9515 23.0937 89.5765 22.5256C89.2071 21.9517 89.0225 21.233 89.0225 20.3693C89.0225 19.642 89.1503 19.0284 89.406 18.5284C89.6617 18.0284 90.014 17.6222 90.4628 17.3097C90.9117 16.9972 91.4287 16.7614 92.014 16.6023C92.5992 16.4375 93.2242 16.3267 93.889 16.2699C94.6333 16.2017 95.2327 16.1307 95.6873 16.0568C96.1418 15.9773 96.4713 15.8665 96.6759 15.7244C96.8861 15.5767 96.9912 15.3693 96.9912 15.1023V15.0597C96.9912 14.6222 96.8407 14.2841 96.5395 14.0455C96.2384 13.8068 95.8321 13.6875 95.3208 13.6875C94.7696 13.6875 94.3265 13.8068 93.9912 14.0455C93.656 14.2841 93.4429 14.6136 93.352 15.0341L89.5083 14.8977C89.6219 14.1023 89.9145 13.392 90.3861 12.767C90.8634 12.1364 91.5168 11.642 92.3463 11.2841C93.1816 10.9205 94.1844 10.7386 95.3549 10.7386C96.1901 10.7386 96.96 10.8381 97.6645 11.0369C98.3691 11.2301 98.9827 11.5142 99.5054 11.8892C100.028 12.2585 100.432 12.7131 100.716 13.2528C101.005 13.7926 101.15 14.4091 101.15 15.1023V24H97.2299V22.1761H97.1276C96.8946 22.6193 96.5963 22.9943 96.2327 23.3011C95.8748 23.608 95.4515 23.8381 94.9628 23.9915C94.4799 24.1449 93.9344 24.2216 93.3265 24.2216ZM94.6134 21.4943C95.0623 21.4943 95.4657 21.4034 95.8236 21.2216C96.1873 21.0398 96.477 20.7898 96.6929 20.4716C96.9088 20.1477 97.0168 19.7727 97.0168 19.3466V18.1023C96.8975 18.1648 96.7526 18.2216 96.5821 18.2727C96.4174 18.3239 96.2355 18.3722 96.0367 18.4176C95.8378 18.4631 95.6333 18.5028 95.423 18.5369C95.2128 18.571 95.0111 18.6023 94.8179 18.6307C94.4259 18.6932 94.0907 18.7898 93.8123 18.9205C93.5395 19.0511 93.3293 19.2216 93.1816 19.4318C93.0395 19.6364 92.9685 19.8807 92.9685 20.1648C92.9685 20.5966 93.1219 20.9261 93.4287 21.1534C93.7412 21.3807 94.1361 21.4943 94.6134 21.4943ZM107.457 20.5653L107.474 15.5966H108.054L111.736 10.9091H116.457L110.986 17.625H109.886L107.457 20.5653ZM103.699 24V6.54545H107.866V24H103.699ZM111.829 24L108.403 18.5625L111.147 15.6051L116.645 24H111.829ZM117.949 24V10.9091H122.116V24H117.949ZM120.037 9.38352C119.451 9.38352 118.949 9.19034 118.528 8.80398C118.108 8.41193 117.897 7.94034 117.897 7.3892C117.897 6.84375 118.108 6.37784 118.528 5.99148C118.949 5.59943 119.451 5.40341 120.037 5.40341C120.628 5.40341 121.13 5.59943 121.545 5.99148C121.966 6.37784 122.176 6.84375 122.176 7.3892C122.176 7.94034 121.966 8.41193 121.545 8.80398C121.13 9.19034 120.628 9.38352 120.037 9.38352Z" fill="black"/>
<defs>
<linearGradient id="paint0_linear_2_4" x1="4.03995" y1="15.5" x2="38.3603" y2="15.5" gradientUnits="userSpaceOnUse">
<stop stop-color="#F54A48"/>
<stop offset="1" stop-color="#FA982F"/>
</linearGradient>
</defs>
</svg>
